<svg id="fd59ce54-f850-4dfc-bc34-dd7d379d600e" data-name="Layer 1" xmlns="http://www.w3.org/2000/svg" width="1074.4" height="584.2" viewBox="0 0 1074.392 584.231"><title>page not found</title><ellipse cx="540.6" cy="549.3" rx="527.5" ry="34.9" fill="#f2f2f2"/><path d="M 583.5 324.9 c -85.9 0 -147.7 55.1 -147.7 183.8 c 0 145.8 61.7 184.4 147.7 184.4 s 151.3 -42.3 151.3 -184.4 C 734.8 356.8 669.4 324.9 583.5 324.9 Z m 0.6 319.8 c -59.5 0 -90.6 -34.9 -90.6 -135.9 c 0 -89.1 32.4 -136.1 91.9 -136.1 s 91.9 30.9 91.9 136.1 C 677.2 607.2 643.6 644.7 584 644.7 Z" transform="translate(-63.1,-157.9)" fill="#2f2e41"/><path d="M 384.4 591.4 H 348.8 V 486.8 C 348.8 475.2 339.4 465.8 327.9 465.8 h -8.3 C 314 465.8 308.7 468 304.7 471.9 C 300.8 475.9 298.6 481.2 298.6 486.8 V 591.4 H 198.4 C 194.2 591.4 190.3 589.2 188.1 585.6 C 186 582 185.8 577.6 187.8 573.8 l 106.1 -200.8 C 296.5 368 297 362.1 295.2 356.7 C 293.4 351.2 289.5 346.8 284.3 344.3 l -6.3 -3 C 267.9 336.6 255.9 340.6 250.6 350.4 L 121.2 592.5 C 119 596.6 117.9 601.2 117.9 605.9 v 0 C 117.9 613.4 120.9 620.6 126.2 626 C 131.5 631.3 138.7 634.3 146.3 634.3 H 298.6 v 66.2 C 298.6 707.1 301.2 713.5 306 718.2 C 310.7 722.9 317 725.6 323.7 725.6 h 0 C 330.4 725.6 336.8 722.9 341.5 718.2 C 346.2 713.5 348.8 707.1 348.8 700.5 V 634.3 h 35.5 C 390.1 634.3 395.5 632 399.5 628 C 403.5 624 405.8 618.5 405.8 612.8 v 0 C 405.8 601 396.2 591.4 384.4 591.4 Z" transform="matrix(1,0,0,1,-63.1,-157.9)" fill="#ef4444"/><path d="M 1042.4 591.4 h -35.5 V 486.8 A 21 21 0 0 0 985.9 465.8 h -8.3 a 21 21 0 0 0 -21 21 V 591.4 H 856.4 a 12 12 0 0 1 -10.6 -17.6 L 951.9 373.1 A 21 21 0 0 0 942.3 344.3 l -6.3 -3 a 21 21 0 0 0 -27.4 9.1 L 779.2 592.5 a 28.4 28.4 0 0 0 -3.4 13.4 v 0 a 28.4 28.4 0 0 0 28.4 28.4 H 956.6 v 66.2 a 25.1 25.1 0 0 0 25.1 25.1 h 0 a 25.1 25.1 0 0 0 25.1 -25.1 V 634.3 h 35.5 a 21.4 21.4 0 0 0 21.4 -21.4 v 0 A 21.4 21.4 0 0 0 1042.4 591.4 Z" transform="translate(-63.1,-157.9)" fill="#ef4444"/><path d="M 394.2 579.1 H 358.6 V 474.5 a 21 21 0 0 0 -21 -21 h -8.3 a 21 21 0 0 0 -21 21 V 579.1 H 208.2 a 12 12 0 0 1 -10.6 -17.6 L 303.7 360.8 a 21 21 0 0 0 -9.6 -28.7 l -6.3 -3 a 21 21 0 0 0 -27.4 9.1 L 131 580.2 a 28.4 28.4 0 0 0 -3.4 13.4 v 0 a 28.4 28.4 0 0 0 28.4 28.4 H 308.4 v 66.2 a 25.1 25.1 0 0 0 25.1 25.1 h 0 a 25.1 25.1 0 0 0 25.1 -25.1 V 622 h 35.5 a 21.4 21.4 0 0 0 21.4 -21.4 v 0 A 21.4 21.4 0 0 0 394.2 579.1 Z" transform="translate(-63.1,-157.9)" fill="none" stroke="#3f3d56" stroke-miterlimit="10"/><path d="M 1060.7 579.1 h -35.5 V 474.5 a 21 21 0 0 0 -21 -21 H 995.9 a 21 21 0 0 0 -21 21 V 579.1 H 874.7 a 12 12 0 0 1 -10.6 -17.6 L 970.2 360.8 a 21 21 0 0 0 -9.6 -28.7 l -6.3 -3 a 21 21 0 0 0 -27.4 9.1 L 797.6 580.2 a 28.4 28.4 0 0 0 -3.4 13.4 v 0 a 28.4 28.4 0 0 0 28.4 28.4 H 975 v 66.2 a 25.1 25.1 0 0 0 25.1 25.1 h 0 a 25.1 25.1 0 0 0 25.1 -25.1 V 622 h 35.5 a 21.4 21.4 0 0 0 21.4 -21.4 v 0 A 21.4 21.4 0 0 0 1060.7 579.1 Z" transform="translate(-63.1,-157.9)" fill="none" stroke="#3f3d56" stroke-miterlimit="10"/><path d="M 603.1 313.9 c -85.9 0 -147.7 55.1 -147.7 183.8 c 0 145.8 61.7 184.4 147.7 184.4 s 151.3 -42.3 151.3 -184.4 C 754.4 345.7 689 313.9 603.1 313.9 Z m 0.6 319.8 c -59.5 0 -90.6 -34.9 -90.6 -135.9 c 0 -89.1 32.4 -136.1 91.9 -136.1 s 91.9 30.9 91.9 136.1 C 696.8 596.2 663.2 633.7 603.6 633.7 Z" transform="translate(-63.1,-157.9)" fill="none" stroke="#3f3d56" stroke-miterlimit="10"/><circle cx="471.1" cy="18.3" r="12.9" fill="#2f2e41"/><ellipse cx="502.6" cy="46.9" rx="36.2" ry="46.9" fill="#2f2e41"/><path d="M 565.7 237.5 c -18.1 0 -33.1 -17.3 -35.8 -39.8 a 61 61 0 0 0 -0.4 7.1 c 0 25.9 16.2 46.9 36.2 46.9 s 36.2 -21 36.2 -46.9 a 61 61 0 0 0 -0.4 -7.1 C 598.8 220.2 583.8 237.5 565.7 237.5 Z" transform="translate(-63.1,-157.9)" opacity="0.1"/><path d="M 639.3 342.1 c -0.8 3.2 -4.1 5.8 -7.8 7.5 c -7.8 3.8 -17.4 4.9 -26.8 5.3 a 45.2 45.2 0 0 1 -7.1 -0.1 a 20.5 20.5 0 0 1 -12.3 -5.6 a 1.7 1.7 0 0 1 0 -2.8 c 5 -5.5 13.3 -8.8 21.6 -11.2 c 6.3 -1.8 17.4 -6.6 24.3 -5.9 C 637.9 329.7 640.3 338 639.3 342.1 Z" transform="translate(-63.1,-157.9)" fill="#3f3d56"/><path d="M 639.3 342.1 c -0.8 3.2 -4.1 5.8 -7.8 7.5 c -7.8 3.8 -17.4 4.9 -26.8 5.3 a 45.2 45.2 0 0 1 -7.1 -0.1 a 20.5 20.5 0 0 1 -12.3 -5.6 a 1.7 1.7 0 0 1 0 -2.8 c 5 -5.5 13.3 -8.8 21.6 -11.2 c 6.3 -1.8 17.4 -6.6 24.3 -5.9 C 637.9 329.7 640.3 338 639.3 342.1 Z" transform="translate(-63.1,-157.9)" opacity="0.1"/><path d="M 540.1 318.2 a 19.8 19.8 0 0 0 -1.2 15.1 a 26.3 26.3 0 0 0 8.8 12.5 c 10.1 8.1 24 9.2 36.9 9.1 a 284.6 284.6 0 0 0 33.9 -2.3 a 40.5 40.5 0 0 0 11 -2.6 c 4.2 -1.8 7.9 -5.2 9.4 -9.5 s 0.4 -9.7 -3.1 -12.6 c -3.1 -2.5 -7.5 -2.9 -11.5 -3.1 l -23.1 -1.4 c 2.3 -2.3 5.3 -3.6 8.1 -5.3 c 3.7 -2.2 6.1 -6 8.8 -9.3 a 129 129 0 0 1 13.4 -13.8 c 0.8 4.3 3.5 7.8 6.7 10.8 s 6.9 5.4 10.2 8.2 c 8.1 6.9 13.9 16.2 22.4 22.5 a 43.8 43.8 0 0 0 16 -8 l -3.3 -6 a 3.9 3.9 0 0 0 -1.2 -1.6 c -0.9 -0.6 -2.1 -0.3 -3.2 -0.4 c -2.9 -0.4 -4.2 -3.8 -5.3 -6.5 c -3.1 -7.4 -9.1 -13.2 -14.2 -19.4 a 98 98 0 0 1 -10 -14.7 c -1.7 -3.1 -3.3 -6.3 -5.6 -9 s -5.6 -4.8 -9.1 -4.8 c -3.1 0 -6 1.6 -8.7 3.2 a 230.5 230.5 0 0 0 -23.6 16.1 c -3.9 3.1 -7.9 6.3 -12.5 8.2 c -1.9 0.8 -4 1.3 -5.9 2.3 c -3.3 1.7 -5.8 4.5 -8.4 7.1 C 566.3 311.9 553.2 317.7 540.1 318.2 Z" transform="translate(-63.1,-157.9)" fill="#3f3d56"/><path d="M 588.4 254 a 23.8 23.8 0 0 1 -1.7 8 a 10 10 0 0 1 -5.8 5.6 a 12.4 12.4 0 0 1 -5.6 0.2 a 10.9 10.9 0 0 1 -4.6 -1.6 c -2.2 -1.5 -3.2 -4.1 -3.6 -6.7 c -0.4 -2.6 -0.2 -5.2 -0.5 -7.9 a 42.9 42.9 0 0 0 -1.2 -6.3 c -0.2 -0.7 -0.3 -1.4 -0.5 -2 c -0.2 -0.7 -0.3 -1.4 -0.5 -2 c -0.1 -0.6 -0.3 -1.3 -0.4 -1.9 c -0.1 -0.5 -0.2 -1.1 -0.2 -1.6 a 18.4 18.4 0 0 0 -0.8 -4.8 a 14.6 14.6 0 0 0 -1.7 -2.9 c -0.3 -0.4 -0.6 -0.8 -0.8 -1.2 a 5.9 5.9 0 0 1 -1 -3.7 a 3.3 3.3 0 0 1 0.1 -0.6 c 0 -0.1 0.1 -0.2 0.1 -0.2 A 1.8 1.8 0 0 0 560.9 223.1 a 3.4 3.4 0 0 0 -0.1 -1.8 a 11.3 11.3 0 0 0 -1 -2.3 c -0.3 -0.5 -1.2 -1.3 -1.2 -1.9 c 0 -1.1 2.1 -2 3 -2.4 a 16.8 16.8 0 0 1 8.6 -1.7 c 1.9 0.1 4 0.7 5 2.3 c 0.9 1.4 0.8 3.3 1.2 5 a 1.5 1.5 0 0 0 0.3 0.7 a 1.3 1.3 0 0 0 0.7 0.3 a 4.5 4.5 0 0 0 1.4 0.1 h 0 a 2.9 2.9 0 0 0 0.4 -0.1 a 5 5 0 0 0 2 -0.9 q 0.6 -0.2 1.2 -0.3 a 0.3 0.3 0 0 0 0 0 c 1.6 5 1.8 10.3 3.1 15.4 c 0.6 2.5 1.6 5 1.7 7.6 c 0 0.1 0 0.2 0 0.3 c 0 0.8 0 1.7 0 2.5 a 7 7 0 0 0 0.1 1.1 a 15.6 15.6 0 0 0 0.5 1.7 l 0 0 c 0.1 0.2 0.1 0.4 0.2 0.6 c 0 0.1 0.1 0.3 0.1 0.4 l 0 0 A 14.9 14.9 0 0 1 588.4 254 Z" transform="translate(-63.1,-157.9)" fill="#fbbebe"/><circle cx="503.2" cy="45" r="18.6" fill="#fbbebe"/><path d="M 684.2 304 a 30.4 30.4 0 0 0 -5.2 -14.1 q 0.7 4.3 1.4 8.6 a 3.2 3.2 0 0 1 -3.4 -1 a 10.3 10.3 0 0 1 -1.8 -3.3 a 67.5 67.5 0 0 0 -8.2 -14.7 c -11.8 -1 -23.5 -5.9 -33.9 -11.6 c -10.4 -5.7 -20.1 -12.6 -30.4 -18.5 a 43.6 43.6 0 0 0 -5.5 -2.8 c -3.2 -1.3 -6.8 -2 -9.9 -3.5 c -0.2 -0.1 -0.4 -0.2 -0.6 -0.3 a 12.6 12.6 0 0 1 -1.9 -1.3 a 10.3 10.3 0 0 1 -0.9 -0.9 a 20.4 20.4 0 0 1 -3.6 -6 c -1.6 -3.6 -2.2 -8 -3.8 -11.6 a 11.2 11.2 0 0 1 2.5 -1.8 h 0 c 0.1 -0.1 0.3 -0.1 0.4 -0.2 a 11.9 11.9 0 0 1 2 -0.7 q 0.6 -0.2 1.2 -0.3 a 0.3 0.3 0 0 0 0 0 a 11.6 11.6 0 0 1 5.5 0.4 c 2.6 0.9 4.8 2.6 6.9 4.3 a 114 114 0 0 1 10.1 8 c 1.8 1.7 3.4 3.6 5.4 5.2 a 42.1 42.1 0 0 0 5.1 3.4 q 15.7 9.3 31.3 18.7 c 3.5 2.1 7.1 4.2 10.5 6.4 c 5.2 3.4 10.3 7.1 15.4 10.7 q 4.5 3.2 8.9 6.5 a 9.7 9.7 0 0 1 2.5 2.3 a 8.5 8.5 0 0 1 1.1 3.4 A 31.4 31.4 0 0 1 684.2 304 Z" transform="translate(-63.1,-157.9)" fill="#fbbebe"/><path d="M 593 267.9 c -1.3 5.6 -6.9 9 -9.9 13.9 c -3.7 6.1 -2.2 13.2 -0.8 20.3 q -3.8 3.3 -7.6 6.5 c -1.4 1.2 -2.8 2.4 -4.3 3.5 a 57.4 57.4 0 0 1 -6.9 3.9 q -3.4 1.7 -6.7 3.5 a 32.1 32.1 0 0 1 -6.6 2.8 c -4.4 1.1 -9.1 0.3 -13.5 -1 a 6.1 6.1 0 0 1 -1.5 -0.6 a 2.4 2.4 0 0 1 -0.7 -0.6 a 3.9 3.9 0 0 1 -0.4 -2.5 c 0.4 -7.4 2.2 -14.5 4 -21.7 a 85.3 85.3 0 0 1 3.8 -12.6 a 85.1 85.1 0 0 1 5.4 -10.2 a 68.4 68.4 0 0 1 7.9 -11.5 a 18.5 18.5 0 0 0 3.7 -4.7 c 1.1 -2.5 0.7 -5.5 0.9 -8.2 a 17.1 17.1 0 0 1 1.6 -6 v 0 a 17.1 17.1 0 0 1 1.7 -2.9 q 0.5 1.1 0.9 2.1 q 0.3 0.7 0.6 1.4 q 0.4 0.9 0.8 1.8 q 1.1 2.6 2.2 5.1 a 21.6 21.6 0 0 0 3.3 5.9 a 6.5 6.5 0 0 0 11.1 -0.9 a 21.3 21.3 0 0 0 2.3 -6 a 19.2 19.2 0 0 0 0.3 -7.8 c -0.8 -5 -2.9 -10.1 -4.4 -14.8 a 14.9 14.9 0 0 1 -1.1 -4.9 a 3.4 3.4 0 0 1 0.1 -0.6 c 0 0 0 -0.1 0 -0.1 a 11.9 11.9 0 0 1 2 -0.7 q 0.6 -0.2 1.2 -0.3 q 2 11.1 4.1 22.1 c 0 0.2 0.1 0.3 0.1 0.5 c 0.2 1.1 0.4 2.1 0.6 3.2 c 0.2 1 0.4 1.9 0.7 2.9 l 0 0 c 0.1 0.3 0.2 0.6 0.3 1 l 0 0 c 0.2 0.9 0.5 1.7 0.8 2.6 C 590.9 257.5 594.2 262.6 593 267.9 Z" transform="translate(-63.1,-157.9)" fill="#ef4444"/><path d="M 668.3 346.9 a 6.6 6.6 0 0 0 0.6 3.1 c 1.2 2.1 3.9 2.6 6.4 2.8 a 188.4 188.4 0 0 0 42.3 -1.3 a 4.9 4.9 0 0 0 2.2 -0.7 c 2 -1.4 0.8 -4.8 -1.4 -5.9 s -4.8 -0.8 -7.1 -1.3 a 22.5 22.5 0 0 1 -6.7 -2.9 q -7.3 -4.2 -14.3 -8.7 c -2.8 -1.8 -6.1 -3.7 -9.2 -2.6 C 672.4 332.3 668.3 337.7 668.3 346.9 Z" transform="translate(-63.1,-157.9)" fill="#3f3d56"/><path d="M 564.4 240.9 v 0 c 0 0.1 0 0.3 -0.1 0.4 c 0 0.2 -0.1 0.4 -0.1 0.6 c -0.4 2 -0.9 4 -1.4 6 c -1.5 5.5 -3.5 10.8 -5.5 16.1 q -8.1 21.3 -16.2 42.6 c -1.4 3.6 -2.7 7.2 -4.3 10.7 c -0.5 1.2 -1 2.3 -1.6 3.5 c -1.9 4.3 -3.7 8.7 -4.3 13.2 a 27.4 27.4 0 0 0 -0.2 9 c 0.6 3 2.4 5.9 5.2 7 c 1.4 0.5 3.4 1.3 3 2.7 c -0.2 0.8 -1.1 1.2 -1.9 1.3 a 7.3 7.3 0 0 1 -6 -1.7 c -1.5 -1.3 -2.7 -3.4 -4.7 -3.6 c -1.4 -0.2 -2.7 0.7 -3.9 1.3 c -5.2 2.4 -11.2 0.7 -16.7 -1 c 0.4 -2.2 2.6 -3.7 4.8 -4.1 c 2.2 -0.4 4.5 -0.1 6.7 -0.2 a 3.5 3.5 0 0 0 2 -0.5 a 3.7 3.7 0 0 0 1.1 -1.9 a 79 79 0 0 0 3.2 -13.1 c 0.7 -4.7 1 -9.4 2.1 -14 c 0.8 -3.6 2 -7.1 3.1 -10.6 a 224.7 224.7 0 0 0 5.1 -22.1 a 78 78 0 0 0 1.4 -9.4 c 0.2 -2.6 0.1 -5.2 0.3 -7.8 a 60.9 60.9 0 0 1 2.1 -10 q 1.4 -5.3 2.9 -10.7 c 1.4 -5.3 3 -10.7 6.6 -14.8 a 14 14 0 0 1 10 -4.8 a 9.9 9.9 0 0 1 2.1 0.2 c 0.1 0 0.2 0.1 0.3 0.1 a 8.6 8.6 0 0 1 2.2 0.9 c 1.1 -0.7 1.7 -0.5 2.4 0.6 a 7 7 0 0 1 0.9 3.8 A 52.4 52.4 0 0 1 564.4 240.9 Z" transform="translate(-63.1,-157.9)" fill="#fbbebe"/><path d="M 565.7 245 l 0 0 l -0.3 0.3 l -2.5 2.5 l -1.2 -5.2 l -4.3 -17.9 a 9.9 9.9 0 0 1 2.1 0.2 a 3.3 3.3 0 0 1 0.1 -0.6 l 0.2 0.7 l 1.4 4.9 l 2.7 9.3 l 0.5 1.5 v 0 Z" transform="translate(-63.1,-157.9)" fill="#ef4444"/><path d="M 581.7 188.1 a 12.6 12.6 0 0 1 -3.7 8.9 a 12.3 12.3 0 0 1 -1.4 1.2 a 12.5 12.5 0 0 1 -7.5 2.5 H 554 a 12.6 12.6 0 0 1 0 -25.2 h 15.1 A 12.6 12.6 0 0 1 581.7 188.1 Z" transform="translate(-63.1,-157.9)" fill="#2f2e41"/><circle cx="532.8" cy="18.3" r="12.9" fill="#2f2e41"/><path d="M 595.6 163.2 c -0.2 0 -0.3 0 -0.5 0 a 12.9 12.9 0 0 1 0 25.8 c 0.2 0 0.3 0 0.5 0 a 12.9 12.9 0 1 0 0 -25.8 Z" transform="translate(-63.1,-157.9)" opacity="0.1"/><path d="M 534.2 163.2 c 0.2 0 0.3 0 0.5 0 a 12.9 12.9 0 0 0 0 25.8 c -0.2 0 -0.3 0 -0.5 0 a 12.9 12.9 0 0 1 0 -25.8 Z" transform="translate(-63.1,-157.9)" opacity="0.1"/><path d="M 576.7 198.2 a 12.5 12.5 0 0 1 -7.5 2.5 H 554 a 12.5 12.5 0 0 1 -7.5 -2.5 Z" transform="translate(-63.1,-157.9)" opacity="0.1"/><path d="M 674.1 291.6 s 3.3 9.4 6.2 6.9 L 678 286.3 Z" transform="translate(-63.1,-157.9)" fill="#fbbebe"/><path d="M 1069.9 577.4 a 20.8 20.8 0 1 0 2.8 -39.9 l 0.5 10.7 l -5.1 -9.2 a 20.7 20.7 0 0 0 -10.7 11.7 a 20.4 20.4 0 0 0 -1.2 5.6 A 20.8 20.8 0 0 0 1069.9 577.4 Z" transform="translate(-63.1,-157.9)" fill="#ef4444"/><path d="M 1095 701.7 c -1.8 -9.1 6 -17.2 13.6 -22.4 s 16.6 -10.4 19.2 -19.3 c 3.8 -12.8 -7.4 -24.5 -16.1 -34.6 a 125.3 125.3 0 0 1 -16.5 -24.6 c -1.8 -3.5 -3.5 -7.2 -4 -11.2 c -0.7 -5.7 1.1 -11.3 3 -16.7 q 9.2 -27.1 19.6 -53.7" transform="translate(-63.1,-157.9)" fill="none" stroke="#3f3d56" stroke-miterlimit="10"/><path d="M 1070.8 574.7 a 20.8 20.8 0 1 0 2.8 -39.9 l 0.5 10.7 l -5.1 -9.2 a 20.7 20.7 0 0 0 -10.7 11.7 a 20.4 20.4 0 0 0 -1.2 5.6 A 20.8 20.8 0 0 0 1070.8 574.7 Z" transform="translate(-63.1,-157.9)" fill="none" stroke="#3f3d56" stroke-miterlimit="10"/><path d="M 1092.5 515.5 a 20.8 20.8 0 0 1 15 -13.2 l 1.7 10.2 l 3.2 -10.7 a 20.8 20.8 0 1 1 -19.9 13.7 Z" transform="translate(-63.1,-157.9)" fill="#ef4444"/><path d="M 1093.6 511.8 a 20.8 20.8 0 0 1 15 -13.2 l 1.7 10.2 l 3.2 -10.7 a 20.8 20.8 0 1 1 -19.9 13.7 Z" transform="translate(-63.1,-157.9)" fill="none" stroke="#3f3d56" stroke-miterlimit="10"/><path d="M 1108 625.5 a 20.8 20.8 0 0 0 18.4 -37 l -2.4 8.2 l -1.7 -10.3 a 0.4 0.4 0 0 0 -0.1 0 a 20.8 20.8 0 1 0 -14.2 39.1 Z" transform="translate(-63.1,-157.9)" fill="#ef4444"/><path d="M 1109 621.8 a 20.8 20.8 0 0 0 18.4 -37 l -2.4 8.2 l -1.7 -10.3 a 0.4 0.4 0 0 0 -0.1 0 a 20.8 20.8 0 1 0 -14.2 39.1 Z" transform="translate(-63.1,-157.9)" fill="none" stroke="#3f3d56" stroke-miterlimit="10"/><path d="M 1086.4 660.1 a 20.8 20.8 0 1 0 4 -16.3 l 9.3 14 l -12.7 -7.4 A 20.6 20.6 0 0 0 1086.4 660.1 Z" transform="translate(-63.1,-157.9)" fill="#ef4444"/><path d="M 1087.2 657.3 a 20.8 20.8 0 1 0 4 -16.3 l 9.3 14 l -12.7 -7.4 A 20.6 20.6 0 0 0 1087.2 657.3 Z" transform="translate(-63.1,-157.9)" fill="none" stroke="#3f3d56" stroke-miterlimit="10"/><path d="M 72.1 628.1 a 13.7 13.7 0 1 0 1.8 -26.2 l 0.3 7 l -3.3 -6 a 13.6 13.6 0 0 0 -7 7.7 a 13.4 13.4 0 0 0 -0.8 3.7 A 13.7 13.7 0 0 0 72.1 628.1 Z" transform="translate(-63.1,-157.9)" fill="#ef4444"/><path d="M 88.5 709.8 c -1.2 -6 3.9 -11.3 8.9 -14.7 s 10.9 -6.8 12.6 -12.7 c 2.5 -8.4 -4.9 -16.1 -10.6 -22.8 A 82.3 82.3 0 0 1 88.7 643.4 a 22.2 22.2 0 0 1 -2.6 -7.3 c -0.5 -3.7 0.7 -7.4 2 -11 q 6 -17.8 12.9 -35.2" transform="translate(-63.1,-157.9)" fill="none" stroke="#3f3d56" stroke-miterlimit="10"/><path d="M 72.6 626.3 a 13.7 13.7 0 1 0 1.8 -26.2 l 0.3 7 L 71.5 601.1 a 13.6 13.6 0 0 0 -7 7.7 a 13.4 13.4 0 0 0 -0.8 3.7 A 13.7 13.7 0 0 0 72.6 626.3 Z" transform="translate(-63.1,-157.9)" fill="none" stroke="#3f3d56" stroke-miterlimit="10"/><path d="M 86.9 587.4 a 13.7 13.7 0 0 1 9.8 -8.7 l 1.1 6.7 l 2.1 -7 a 13.7 13.7 0 1 1 -13.1 9 Z" transform="translate(-63.1,-157.9)" fill="#ef4444"/><path d="M 87.6 585 a 13.7 13.7 0 0 1 9.8 -8.7 l 1.1 6.7 L 100.7 576 a 13.7 13.7 0 1 1 -13.1 9 Z" transform="translate(-63.1,-157.9)" fill="none" stroke="#3f3d56" stroke-miterlimit="10"/><path d="M 97.1 659.7 a 13.7 13.7 0 0 0 12.1 -24.3 l -1.6 5.4 l -1.1 -6.8 a 0.2 0.2 0 0 0 0 0 a 13.7 13.7 0 1 0 -9.3 25.7 Z" transform="translate(-63.1,-157.9)" fill="#ef4444"/><path d="M 97.8 657.3 a 13.7 13.7 0 0 0 12.1 -24.3 l -1.6 5.4 l -1.1 -6.8 a 0.2 0.2 0 0 0 0 0 a 13.7 13.7 0 1 0 -9.3 25.7 Z" transform="translate(-63.1,-157.9)" fill="none" stroke="#3f3d56" stroke-miterlimit="10"/><path d="M 82.9 682.4 a 13.7 13.7 0 1 0 2.6 -10.7 l 6.1 9.2 l -8.3 -4.9 A 13.5 13.5 0 0 0 82.9 682.4 Z" transform="matrix(1,0,0,1,-63.1,-157.9)" fill="#ef4444"/><path d="M 83.4 680.6 a 13.7 13.7 0 1 0 2.6 -10.7 l 6.1 9.2 l -8.3 -4.9 A 13.5 13.5 0 0 0 83.4 680.6 Z" transform="translate(-63.1,-157.9)" fill="none" stroke="#3f3d56" stroke-miterlimit="10"/><ellipse cx="480.9" cy="319.1" rx="17" ry="22" fill="#2f2e41"/><ellipse cx="573.4" cy="319.6" rx="17" ry="22" fill="#2f2e41"/><path d="M 623.5 542.5 c 0 9.9 -13.9 18 -31 18 s -31 -8.1 -31 -18 c 0 -8.6 10.4 -15.8 24.3 -17.6 a 50.1 50.1 0 0 1 6.7 -0.4 a 50.7 50.7 0 0 1 11.1 1.2 C 615.3 528.3 623.5 534.8 623.5 542.5 Z" transform="translate(-63.1,-157.9)" fill="#2f2e41"/><ellipse cx="484.9" cy="314.1" rx="17" ry="22" fill="none" stroke="#3f3d56" stroke-miterlimit="10"/><ellipse cx="577.4" cy="314.6" rx="17" ry="22" fill="none" stroke="#3f3d56" stroke-miterlimit="10"/><ellipse cx="533.4" cy="379.6" rx="31" ry="18" fill="none" stroke="#3f3d56" stroke-miterlimit="10"/><path d="M 604 527.2 a 4.9 4.9 0 0 1 -1.3 3.4 A 4.3 4.3 0 0 1 599.5 532 h -10 a 4.7 4.7 0 0 1 -4.5 -4.8 a 4.9 4.9 0 0 1 0.8 -2.7 A 47 47 0 0 1 592.5 524 a 47.7 47.7 0 0 1 11.1 1.3 A 5.1 5.1 0 0 1 604 527.2 Z" transform="translate(-63.1,-157.9)" fill="#ffffff"/><circle cx="484.9" cy="308.1" r="5" fill="#ffffff"/><circle cx="577.9" cy="308.1" r="5" fill="#ffffff"/><circle cx="582.9" cy="355.1" r="5" fill="#ef4444" opacity="0.3"/><circle cx="460.9" cy="355.1" r="5" fill="#ef4444" opacity="0.3"/></svg>