<svg id="ebc7c95e-7bf0-45aa-b47d-6acc1baedf34" data-name="Layer 1" xmlns="http://www.w3.org/2000/svg" width="862.7" height="644.8" viewBox="0 0 862.70323 644.78592"><polygon points="629.9,612.6 612.8,612.6 604.6,546.4 629.9,546.4 629.9,612.6" fill="#9e616a"/><path d="M 807.7 770 H 795.3 l -2.2 -11.6 l -5.6 11.6 H 754.9 A 7.3 7.3 0 0 1 750.7 756.6 l 26.1 -18 v -11.7 l 27.4 1.6 Z" transform="translate(-168.6,-127.6)" fill="#2f2e41"/><polygon points="731.9,591 718.1,601.2 672.1,553 692.4,537.9 731.9,591" fill="#9e616a"/><path d="M 925.6 737 L 915.7 744.4 l -8.7 -8 l 2.4 12.7 l -26.2 19.5 a 7.3 7.3 0 0 1 -11.3 -8.2 l 10.2 -30 l -7 -9.4 l 23 -15.1 Z" transform="translate(-168.6,-127.6)" fill="#2f2e41"/><path d="M 818.6 398.6 s 32.6 28.1 17.5 108.4 l -18.3 78.6 l 59.8 99.3 l -19.1 23.2 l -77.8 -107.4 l -28.2 -66.1 L 744.7 416.8 Z" transform="translate(-168.6,-127.6)" fill="#2f2e41"/><polygon points="599.4,425.7 597.5,456.1 603.5,585.4 631.7,580.5 637.1,488.4 599.4,425.7" fill="#2f2e41"/><polygon points="237.4,628.2 252.8,628.2 260.1,569 237.4,569 237.4,628.2" fill="#ffb6b6"/><path d="M 402.2 750.8 l 4.3 0 l 16.9 -6.9 l 9 6.9 H 432.4 A 19.3 19.3 0 0 1 451.7 770.1 v 0.6 l -49.5 0 Z" transform="translate(-168.6,-127.6)" fill="#2f2e41"/><polygon points="296.9,618.5 311.9,621.9 332.1,565.8 310,560.8 296.9,618.5" fill="#ffb6b6"/><path d="M 462.9 740.4 l 4.2 1 l 18 -3 l 7.3 8.7 l 0 0 a 19.3 19.3 0 0 1 14.5 23 l -0.1 0.6 L 458.5 759.8 Z" transform="translate(-168.6,-127.6)" fill="#2f2e41"/><path d="M 386.7 393.8 c -7.2 21.7 -6.4 45.3 1.7 70.6 l 3.5 142.4 S 386.7 700.1 403.5 733 h 24.3 l 12.1 -134.8 l 1.5 -90.4 l 52.2 76.3 L 460.3 730.8 l 30 2.7 l 53.9 -159.2 L 477.7 419.8 Z" transform="translate(-168.6,-127.6)" fill="#2f2e41"/><path d="M 667.3 332 c 18.6 -16.8 46.3 -25.2 69.5 -15.8 a 115.5 115.5 0 0 0 -51.9 59.9 c -3.7 9.8 -6.8 21.2 -15.9 26.4 c -5.7 3.3 -12.7 3.4 -19 1.9 c -6.3 -1.6 -12.2 -4.8 -17.9 -7.9 l -1.6 0 C 637.9 372.5 648.7 348.8 667.3 332 Z" transform="translate(-168.6,-127.6)" fill="#e6e6e6"/><path d="M 736.8 316.7 A 98.7 98.7 0 0 0 681.8 342.6 a 42.5 42.5 0 0 0 -8.3 10.4 a 24.4 24.4 0 0 0 -2.8 12.5 c 0.1 4.1 0.7 8.2 -0.2 12.2 a 14.9 14.9 0 0 1 -7.4 9.7 c -4.5 2.6 -9.8 3.4 -14.9 4.1 c -5.7 0.7 -11.6 1.3 -16.5 4.5 c -0.6 0.4 -1.2 -0.6 -0.6 -0.9 c 8.6 -5.6 19.4 -3.5 28.6 -7.2 c 4.3 -1.7 8.1 -4.8 9.5 -9.4 c 1.2 -4 0.6 -8.3 0.5 -12.4 a 26 26 0 0 1 2.3 -12.3 a 39.3 39.3 0 0 1 7.9 -10.7 a 95.7 95.7 0 0 1 24.3 -17.4 A 100.4 100.4 0 0 1 736.7 315.6 c 0.7 -0.1 0.7 1 0 1.1 Z" transform="translate(-168.6,-127.6)" fill="#ffffff"/><path d="M 686.4 337.8 a 14.8 14.8 0 0 1 1.6 -19.1 c 0.5 -0.5 1.3 0.3 0.8 0.8 a 13.7 13.7 0 0 0 -1.5 17.8 c 0.4 0.6 -0.5 1.1 -0.9 0.6 Z" transform="translate(-168.6,-127.6)" fill="#ffffff"/><path d="M 670.4 363.5 a 28.5 28.5 0 0 0 20.4 -4.1 c 0.6 -0.4 1.2 0.6 0.6 0.9 a 29.7 29.7 0 0 1 -21.2 4.2 c -0.7 -0.1 -0.4 -1.2 0.3 -1.1 Z" transform="translate(-168.6,-127.6)" fill="#ffffff"/><path d="M 714.4 321.9 a 8.4 8.4 0 0 0 6.3 4.9 c 0.7 0.1 0.4 1.2 -0.3 1.1 a 9.4 9.4 0 0 1 -6.9 -5.4 a 0.6 0.6 0 0 1 0.2 -0.8 a 0.6 0.6 0 0 1 0.8 0.2 Z" transform="translate(-168.6,-127.6)" fill="#ffffff"/><path d="M 762.5 397.1 c -0.4 -0.1 -0.9 -0.1 -1.3 -0.2 a 110.4 110.4 0 0 0 -17.9 -0.9 c -0.5 0 -0.9 0 -1.4 0 a 116.4 116.4 0 0 0 -41.8 9.6 a 113 113 0 0 0 -15.2 8.1 c -6.7 4.2 -13.6 9.4 -21.1 11.1 a 19.4 19.4 0 0 1 -2.4 0.4 l -30.9 -26.7 c 0 -0.1 -0.1 -0.2 -0.1 -0.3 l -1.3 -1 c 0.2 -0.2 0.5 -0.4 0.7 -0.5 c 0.1 -0.1 0.3 -0.2 0.4 -0.3 c 0.1 -0.1 0.2 -0.1 0.3 -0.2 c 0 0 0.1 0 0.1 -0.1 c 0.1 -0.1 0.2 -0.1 0.2 -0.2 q 2.1 -1.5 4.2 -3 c 0 0 0 0 0 0 a 166.2 166.2 0 0 1 34.6 -18.6 c 0.4 -0.1 0.7 -0.3 1.1 -0.4 a 107.8 107.8 0 0 1 16.9 -4.8 a 95.3 95.3 0 0 1 9.6 -1.3 a 79.3 79.3 0 0 1 24.7 1.8 c 16.1 3.7 30.9 12.6 39.7 26.4 C 762 396.4 762.2 396.8 762.5 397.1 Z" transform="translate(-168.6,-127.6)" fill="#e6e6e6"/><path d="M 762.1 397.4 a 98.7 98.7 0 0 0 -59.5 -12.4 A 42.5 42.5 0 0 0 689.7 388.4 a 24.4 24.4 0 0 0 -9.8 8.3 c -2.4 3.3 -4.4 7 -7.5 9.6 a 14.9 14.9 0 0 1 -11.8 3.3 c -5.2 -0.7 -9.9 -3.1 -14.3 -5.7 c -5 -2.9 -10.1 -5.9 -15.9 -6.3 c -0.7 -0.1 -0.6 -1.1 0.1 -1.1 c 10.2 0.7 17.6 8.9 27.2 11.5 c 4.5 1.2 9.3 1.1 13.2 -1.8 c 3.4 -2.5 5.5 -6.3 7.8 -9.6 a 26 26 0 0 1 9.3 -8.5 a 39.3 39.3 0 0 1 12.7 -3.7 a 95.7 95.7 0 0 1 29.9 0.7 a 100.4 100.4 0 0 1 32.1 11.6 c 0.6 0.4 0 1.2 -0.7 0.9 Z" transform="translate(-168.6,-127.6)" fill="#ffffff"/><path d="M 709.2 384 a 14.8 14.8 0 0 1 12.8 -14.3 c 0.7 -0.1 0.9 1 0.2 1.1 a 13.7 13.7 0 0 0 -11.9 13.3 c 0 0.7 -1.1 0.6 -1.1 -0.1 Z" transform="translate(-168.6,-127.6)" fill="#ffffff"/><path d="M 680.9 394.8 a 28.5 28.5 0 0 0 18.7 9 c 0.7 0.1 0.6 1.2 -0.1 1.1 a 29.7 29.7 0 0 1 -19.5 -9.4 c -0.5 -0.5 0.4 -1.2 0.9 -0.7 Z" transform="translate(-168.6,-127.6)" fill="#ffffff"/><path d="M 741.1 388.2 a 8.4 8.4 0 0 0 2.1 7.7 c 0.5 0.5 -0.4 1.2 -0.9 0.7 a 9.4 9.4 0 0 1 -2.3 -8.5 a 0.6 0.6 0 0 1 0.6 -0.5 a 0.6 0.6 0 0 1 0.5 0.6 Z" transform="translate(-168.6,-127.6)" fill="#ffffff"/><path d="M 219.9 754.7 c -1.4 5.4 -5.3 10 -9.9 13.3 c -0.8 0.5 -1.5 1 -2.3 1.5 c -0.2 0.1 -0.5 0.3 -0.7 0.4 q -0.4 0.2 -0.8 0.5 h -21.6 c -0.4 -0.8 -0.8 -1.6 -1.1 -2.4 c -9.3 -19.5 -15.8 -40.5 -14.7 -61.9 a 79.3 79.3 0 0 1 5.2 -24.3 c 5.9 -15.5 16.8 -28.9 31.7 -35.6 c 0.4 -0.2 0.8 -0.3 1.1 -0.5 c -0.1 0.4 -0.2 0.8 -0.4 1.3 a 110.8 110.8 0 0 0 -3.4 17.6 c -0.1 0.5 -0.1 0.9 -0.1 1.4 a 116.1 116.1 0 0 0 3.7 42.7 c 0 0 0 0.1 0 0.1 q 1.3 4.6 3 9.1 c 0.9 2.4 1.8 4.7 2.9 7 C 216.8 734.4 222.6 744.6 219.9 754.7 Z" transform="translate(-168.6,-127.6)" fill="#e6e6e6"/><path d="M 207 646.2 c -0.2 0.3 -0.4 0.6 -0.6 0.8 a 98.1 98.1 0 0 0 -11.1 18.8 c -0.2 0.3 -0.3 0.7 -0.4 1 a 97.8 97.8 0 0 0 -7.8 29.2 a 1.5 1.5 0 0 0 0 0.2 c -0.3 2.4 -0.4 4.7 -0.5 7.1 a 42.5 42.5 0 0 0 1.4 13.2 a 23.8 23.8 0 0 0 5.5 9.4 c 0.3 0.3 0.5 0.5 0.8 0.8 c 0.2 0.2 0.4 0.4 0.6 0.6 c 2 1.9 4.2 3.7 6.1 5.8 a 21.4 21.4 0 0 1 2.4 3 a 14.9 14.9 0 0 1 1.6 12.1 c -1.4 5.1 -4.5 9.3 -7.7 13.4 c -1.6 2 -3.2 4.1 -4.7 6.3 c -0.5 0.8 -1 1.6 -1.4 2.4 h -1.3 c 0.4 -0.8 0.9 -1.6 1.4 -2.4 c 3.6 -5.8 8.8 -10.7 11.5 -17 c 1.8 -4.3 2.4 -9.1 0.1 -13.3 a 17.7 17.7 0 0 0 -2.4 -3.4 c -1.8 -2.1 -4 -3.8 -6 -5.7 c -0.5 -0.5 -1 -0.9 -1.5 -1.4 a 25 25 0 0 1 -5.6 -8.9 a 39.2 39.2 0 0 1 -1.9 -13.1 c 0 -2.8 0.1 -5.7 0.4 -8.5 c 0 -0.4 0.1 -0.7 0.1 -1.1 a 100.8 100.8 0 0 1 19.7 -49.2 c 0.2 -0.3 0.4 -0.6 0.6 -0.8 C 206.7 644.9 207.5 645.7 207 646.2 Z" transform="translate(-168.6,-127.6)" fill="#ffffff"/><path d="M 186.4 696.7 a 14.8 14.8 0 0 1 -12.4 -14.7 a 0.6 0.6 0 0 1 1.1 0 a 13.7 13.7 0 0 0 11.5 13.6 c 0.7 0.1 0.4 1.2 -0.3 1.1 Z" transform="translate(-168.6,-127.6)" fill="#ffffff"/><path d="M 193.2 726.2 a 28.5 28.5 0 0 0 11.5 -17.3 c 0.2 -0.7 1.2 -0.4 1.1 0.3 a 29.7 29.7 0 0 1 -12 18 c -0.6 0.4 -1.1 -0.5 -0.6 -0.9 Z" transform="translate(-168.6,-127.6)" fill="#ffffff"/><path d="M 195 665.7 a 8.4 8.4 0 0 0 7.9 -1 c 0.6 -0.4 1.1 0.5 0.6 0.9 a 9.4 9.4 0 0 1 -8.7 1.1 a 0.6 0.6 0 0 1 -0.4 -0.7 a 0.6 0.6 0 0 1 0.7 -0.4 Z" transform="translate(-168.6,-127.6)" fill="#ffffff"/><path d="M 282.1 684.9 c -0.3 0.3 -0.7 0.5 -1.1 0.8 a 110.4 110.4 0 0 0 -13.3 12 c -0.3 0.3 -0.6 0.7 -0.9 1 l 0 0 a 116.3 116.3 0 0 0 -22.7 36.1 l 0 0.1 c 0 0 0 0.1 0 0.1 a 114.4 114.4 0 0 0 -5 16.4 c -1.2 5.5 -2.2 11.3 -4.1 16.6 c -0.3 0.8 -0.6 1.6 -0.9 2.4 h -44.5 c 0.1 -0.8 0.3 -1.6 0.5 -2.4 a 160.3 160.3 0 0 1 10.5 -33.7 c 0.2 -0.4 0.3 -0.7 0.5 -1.1 a 108.3 108.3 0 0 1 8.6 -15.3 a 0 0 0 0 1 0 0 a 95 95 0 0 1 5.8 -7.7 a 79.1 79.1 0 0 1 18.7 -16.2 c 0 0 0.1 -0.1 0.1 -0.1 c 14 -8.7 30.7 -12.9 46.6 -9.3 h 0 C 281.3 684.7 281.7 684.8 282.1 684.9 Z" transform="translate(-168.6,-127.6)" fill="#e6e6e6"/><path d="M 282 685.4 c -0.3 0.1 -0.7 0.2 -1 0.3 a 98.6 98.6 0 0 0 -20.2 8.3 c -0.3 0.2 -0.6 0.3 -1 0.5 a 98.3 98.3 0 0 0 -23.8 18.6 a 0 0 0 0 0 0 0 c -0.1 0.1 -0.2 0.2 -0.2 0.3 c -1.6 1.7 -3.1 3.5 -4.6 5.3 a 42.8 42.8 0 0 0 -6.8 11.4 a 23.7 23.7 0 0 0 -1.3 10.8 c 0 0.4 0.1 0.7 0.1 1.1 c 0 0.3 0.1 0.6 0.1 0.9 c 0.7 4 1.8 8 1.5 12.1 a 14.9 14.9 0 0 1 -6 10.6 a 23.8 23.8 0 0 1 -3.7 2.3 a 36.9 36.9 0 0 1 -5.8 2.4 h -3.9 c 0.5 -0.1 1.1 -0.3 1.6 -0.5 a 48.2 48.2 0 0 0 5.5 -1.9 a 26.9 26.9 0 0 0 3 -1.5 c 4 -2.3 7.4 -5.8 8.1 -10.6 c 0.6 -4.1 -0.6 -8.3 -1.3 -12.3 c -0.1 -0.7 -0.2 -1.4 -0.3 -2.1 a 24.4 24.4 0 0 1 0.8 -10.5 a 39.1 39.1 0 0 1 6.4 -11.7 a 83.4 83.4 0 0 1 5.5 -6.5 q 0.4 -0.4 0.8 -0.8 a 100.9 100.9 0 0 1 24.2 -18.7 h 0 a 99.3 99.3 0 0 1 21.1 -8.7 h 0 c 0.3 -0.1 0.7 -0.2 1 -0.3 C 282.5 684.1 282.7 685.2 282 685.4 Z" transform="translate(-168.6,-127.6)" fill="#ffffff"/><path d="M 235.1 713.3 a 14.8 14.8 0 0 1 -1 -19.1 c 0.4 -0.6 1.3 0.1 0.9 0.6 A 13.7 13.7 0 0 0 236 712.6 c 0.5 0.5 -0.4 1.2 -0.9 0.7 Z" transform="translate(-168.6,-127.6)" fill="#ffffff"/><path d="M 222.8 740.9 a 28.5 28.5 0 0 0 19.6 -6.9 c 0.5 -0.5 1.2 0.4 0.7 0.9 a 29.7 29.7 0 0 1 -20.4 7.1 c -0.7 0 -0.6 -1.1 0.1 -1.1 Z" transform="translate(-168.6,-127.6)" fill="#ffffff"/><path d="M 260.6 693.7 a 8.4 8.4 0 0 0 6.9 4 c 0.7 0 0.6 1.1 -0.1 1.1 a 9.4 9.4 0 0 1 -7.6 -4.4 a 0.6 0.6 0 0 1 0.1 -0.8 a 0.6 0.6 0 0 1 0.8 0.1 Z" transform="translate(-168.6,-127.6)" fill="#ffffff"/><path d="M 625 300.7 a 11.6 11.6 0 0 1 -17.8 0.8 l -37.8 16.4 l 3.7 -21.1 l 35.3 -12.4 a 11.7 11.7 0 0 1 16.6 16.2 Z" transform="translate(-168.6,-127.6)" fill="#ffb8b8"/><path d="M 599.8 307.3 l -87.8 39.1 l -0.2 -0.1 l -100.1 -35.7 a 33 33 0 0 1 -14.8 -42.8 h 0 a 32.9 32.9 0 0 1 47 -14.6 l 74.5 44.9 l 72.2 -9.4 Z" transform="translate(-168.6,-127.6)" fill="#e6e6e6"/><path d="M 1031.4 771.2 a 1.2 1.2 0 0 1 -1.2 1.2 h -860.3 a 1.2 1.2 0 0 1 0 -2.4 h 860.3 A 1.2 1.2 0 0 1 1031.4 771.2 Z" transform="translate(-168.6,-127.6)" fill="#cccccc"/><path d="M 482 424.4 l -88.5 -14.2 a 16.9 16.9 0 0 1 -10 -23.6 l 4 -8 l -1.6 -84.3 A 62.5 62.5 0 0 1 416.3 239.6 l 8.6 -5.2 l 4.4 -11.1 l 40.2 1 l 0.1 14.5 l 14.4 23 l 0 0.1 l -0.9 125 l -4 12.9 l 6 15 Z" transform="translate(-168.6,-127.6)" fill="#e6e6e6"/><circle cx="284.5" cy="45.4" r="36.5" fill="#ffb8b8"/><path d="M 415.1 181 c -1.1 -4.6 -0.6 -11.1 0 -15.7 c 1.6 -12.1 8.3 -23.6 18.6 -30.5 a 13.4 13.4 0 0 1 6.7 -2.6 c 2.4 -0.1 5 1.2 5.8 3.5 a 12 12 0 0 1 6.8 -6.7 a 21.1 21.1 0 0 1 9.6 -1.3 a 35.2 35.2 0 0 1 29.4 21 c 1 2.3 3.7 -6.2 4.9 -4.1 a 9.7 9.7 0 0 0 5.5 4.9 c 2.4 0.7 3.4 10.7 4.4 8.3 a 11.1 11.1 0 0 1 -10.6 15.5 c -2.5 -0.1 -4.8 -1 -7.3 -1.4 c -8.7 -1.4 -18 4.9 -19.8 13.6 a 24 24 0 0 0 -3.2 -7 a 8.1 8.1 0 0 0 -6.5 -3.6 c -2.5 0.1 -4.7 1.7 -6.3 3.6 s -2.8 4.1 -4.4 6 c -4.8 5.5 -11.2 18.4 -18 17.4 C 425.3 201.1 416.5 187.3 415.1 181 Z" transform="translate(-168.6,-127.6)" fill="#2f2e41"/><path d="M 674 342.1 a 7.1 7.1 0 0 0 -4.8 -7.9 l -98.4 -32.8 a 7.1 7.1 0 0 0 -2.9 -0.3 l -24.7 2.3 l -14.2 1.3 l -26.1 2.5 a 7.2 7.2 0 0 0 -6.4 6 l -13.3 82.8 a 7.2 7.2 0 0 0 4.5 7.8 l 99.4 38.4 a 6.9 6.9 0 0 0 1.4 0.4 a 7.1 7.1 0 0 0 2.2 0 l 64.3 -9.5 a 7.1 7.1 0 0 0 6 -6 Z" transform="translate(-168.6,-127.6)" fill="#ffffff"/><path d="M 490 398.1 l 99.4 38.4 a 0.9 0.9 0 0 0 0.5 0.1 l 64.2 -9.5 a 0.9 0.9 0 0 0 0.8 -0.8 l 12.9 -85.1 a 0.9 0.9 0 0 0 -0.6 -1 l -0.7 -0.2 l -97.8 -32.5 a 0.7 0.7 0 0 0 -0.1 0 a 0.9 0.9 0 0 0 -0.2 0 l -60.2 5.7 l -4.8 0.4 a 0.9 0.9 0 0 0 -0.8 0.7 l -13.3 82.8 A 0.9 0.9 0 0 0 490 398.1 Z" transform="matrix(1,0,0,1,-168.6,-127.6)" fill="rgb(209, 55, 73)"/><path d="M 508.3 313.1 l 60.2 -5.7 a 0.9 0.9 0 0 1 0.2 0 a 0.7 0.7 0 0 1 0.1 0 l 97.8 32.5 l -25.8 2.7 l -9.7 1 l -27.5 2.9 a 1.9 1.9 0 0 1 -0.2 0 c 0 0 -0.1 0 -0.2 0 Z" transform="translate(-168.6,-127.6)" fill="#2f2e41"/><path d="M 487.8 404 l 99.4 38.4 a 6.7 6.7 0 0 0 1.5 0.4 a 7.2 7.2 0 0 0 2.2 0 l 64.2 -9.5 a 7.1 7.1 0 0 0 6 -6 l 12.9 -85.1 a 7.2 7.2 0 0 0 -0.4 -3.7 c -0.1 -0.2 -0.1 -0.3 -0.2 -0.5 a 7 7 0 0 0 -2.3 -2.7 a 7.1 7.1 0 0 0 -1.9 -1 l -0.1 0 l -98.3 -32.7 a 9 9 0 0 0 -1.2 -0.3 a 7.1 7.1 0 0 0 -1.7 0 l -24.7 2.3 l -14.2 1.4 L 502.9 307.3 a 7.1 7.1 0 0 0 -3 1 a 1.3 1.3 0 0 0 -0.2 0.1 a 1.2 1.2 0 0 0 -0.1 0.1 a 7.1 7.1 0 0 0 -3 4.8 l -13.3 82.8 A 7.2 7.2 0 0 0 487.8 404 Z m 10.5 -90.4 a 5.3 5.3 0 0 1 1.3 -2.7 a 4.7 4.7 0 0 1 0.7 -0.7 a 5.3 5.3 0 0 1 2.3 -1.1 a 4.1 4.1 0 0 1 0.5 -0.1 l 44 -4.2 l 21 -2 c 0.1 0 0.3 0 0.4 0 a 5 5 0 0 1 0.9 0.1 a 4.1 4.1 0 0 1 0.8 0.2 l 98.4 32.8 c 0.1 0 0.1 0.1 0.2 0.1 a 5.2 5.2 0 0 1 2.3 1.7 a 5.3 5.3 0 0 1 1.1 4.1 l -12.9 85.1 a 5.3 5.3 0 0 1 -4.5 4.5 l -64.3 9.5 a 5.4 5.4 0 0 1 -2.7 -0.3 l -99.4 -38.4 a 5.4 5.4 0 0 1 -3.4 -5.8 Z" transform="translate(-168.6,-127.6)" fill="#3f3d56"/><path d="M 499.4 309 a 0.9 0.9 0 0 1 0.3 -0.4 a 1.1 1.1 0 0 1 0.1 -0.1 c 0 0 0.1 0 0.1 -0.1 a 0.9 0.9 0 0 1 0.6 0 l 2.1 0.7 l 101.1 35.7 l 23.7 -2.5 l 13.2 -1.4 l 28 -3 l 2.5 -0.3 l 0.5 -0.1 a 0.9 0.9 0 0 1 1 0.7 a 0.7 0.7 0 0 1 0 0.1 a 0.9 0.9 0 0 1 -0.6 0.9 a 1 1 0 0 1 -0.2 0.1 l -3.4 0.4 l -27.6 2.9 l -9.7 1 l -27.5 2.9 a 1.9 1.9 0 0 1 -0.2 0 c 0 0 -0.1 0 -0.2 0 L 500.2 310.3 l -0.3 -0.1 a 0.7 0.7 0 0 1 -0.2 -0.1 A 0.9 0.9 0 0 1 499.4 309 Z" transform="translate(-168.6,-127.6)" fill="#3f3d56"/><path d="M 588.9 443 a 0.9 0.9 0 0 1 -0.7 -1 l 14.5 -96.3 a 0.9 0.9 0 0 1 1 -0.8 l 0 0 a 0.9 0.9 0 0 1 0.7 1 l -14.5 96.3 a 0.9 0.9 0 0 1 -1 0.8 Z" transform="translate(-168.6,-127.6)" fill="#3f3d56"/><path d="M 625.7 436.9 l -9.7 1 l 11.3 -95.5 s 12.9 -2.3 13.2 -1.4 C 640.8 341.5 625.8 436.3 625.7 436.9 Z" transform="translate(-168.6,-127.6)" fill="#3f3d56"/><polygon points="331.3,182.5 331,226.1 408.1,255.5 435.8,218.3 331.3,182.5" fill="#3f3d56"/><path d="M 671.1 337.7 a 5.3 5.3 0 0 0 -2.5 -1.7 l -98.4 -32.8 a 5.1 5.1 0 0 0 -0.8 -0.2 a 5 5 0 0 0 -1 -0.1 l 0.2 -1 l 1 -0.7 l 23.4 -16.9 l 78 23.9 l 0.1 27.1 Z" transform="translate(-168.6,-127.6)" fill="#3f3d56"/><path d="M 503.8 380.1 a 1.5 1.5 0 0 1 0.3 0.1 l 30.2 9.9 a 1.5 1.5 0 0 1 -0.9 2.9 l -30.2 -9.9 a 1.5 1.5 0 0 1 0.6 -2.9 Z" transform="translate(-168.6,-127.6)" fill="#ffffff"/><circle cx="457" cy="423.2" r="12" fill="#f2f2f2"/><circle cx="151" cy="467.2" r="12" fill="#f2f2f2"/><circle cx="401" cy="70.2" r="12" fill="#f2f2f2"/><path d="M 589.3 397.7 A 11.6 11.6 0 0 1 573.4 389.8 L 532.4 385.6 l 13.5 -16.6 l 36.9 6.5 a 11.7 11.7 0 0 1 6.5 22.2 Z" transform="translate(-168.6,-127.6)" fill="#ffb8b8"/><path d="M 564.1 391.1 l -95.7 -8.8 l -0.1 -0.2 L 398.4 302.1 a 33 33 0 0 1 8 -44.5 h 0 a 32.9 32.9 0 0 1 48.1 10.2 l 43 75.5 l 67.6 27.1 Z" transform="translate(-168.6,-127.6)" fill="#e6e6e6"/><path d="M 804.3 237.2 c -2.4 -17.4 -5.4 -36.2 -17.7 -48.7 a 41.3 41.3 0 0 0 -59.7 0.6 c -9 9.5 -12.9 23 -13.3 36 s 2.6 26 5.8 38.7 a 119.3 119.3 0 0 0 49.8 -9.8 c 3.9 -1.7 7.8 -3.6 11.9 -4.7 c 4.1 -1.1 7.1 1.6 11 3.5 l 2.1 -4.1 c 1.7 3.2 7.1 2.3 9 -0.8 C 805.3 244.8 804.8 240.9 804.3 237.2 Z" transform="translate(-168.6,-127.6)" fill="#2f2e41"/><path d="M 736.5 334.5 l -69.9 1.5 a 11.1 11.1 0 1 0 -4.9 15.6 c 9.3 0.5 81.8 10.8 86.1 4.2 c 4.4 -6.7 27.8 -30.5 27.8 -30.5 l -18 -25.6 Z" transform="translate(-168.6,-127.6)" fill="#9e616a"/><circle cx="584.9" cy="94" r="32.8" fill="#9e616a"/><path d="M 599.4 299.2" transform="translate(-168.6,-127.6)" fill="#1ba85c"/><path d="M 806.1 284.8 c -3.9 -7.7 -5.7 -17.2 -14 -19.7 c -5.6 -1.7 -28.1 0.8 -33.2 3.7 c -8.4 4.7 -0.8 13.6 -5.8 21.9 c -5.4 9 -20.1 27.1 -25.5 36.2 c -3.7 6.2 8.8 24.4 6.8 31.4 c -2 6.9 -2.1 14.7 1.3 21.1 c 3.1 5.7 -1.4 10.7 1.7 16.4 c 3.2 5.9 7.1 28.1 4.2 34.1 l -2 6 c 19.8 1.2 36.5 -22.5 56.3 -25 c 4.9 -0.6 10 -1.4 14 -4.3 c 5.9 -4.2 8.3 -11.8 9.8 -18.9 A 159.3 159.3 0 0 0 806.1 284.8 Z" transform="translate(-168.6,-127.6)" fill="#3f3d56"/><path d="M 835.9 366.1 c -2.8 -7.5 -7.8 -40.5 -7.8 -40.5 l -31.3 -0.9 l 15.3 37.8 l -41.8 58.5 s 0.1 0.1 0.2 0.4 a 11.1 11.1 0 1 0 9.3 11.7 a 0.8 0.8 0 0 0 1 -0.2 C 785.4 427 838.7 373.7 835.9 366.1 Z" transform="translate(-168.6,-127.6)" fill="#9e616a"/><path d="M 839.1 345.3 c -2.9 -12.1 -5.8 -24.3 -10.6 -35.8 s -11.8 -22.3 -21.5 -30.1 c -3.1 -2.5 -6.6 -4.7 -10.5 -5.4 c -3.9 -0.8 -8.3 0.1 -11.1 3 c -4.4 4.6 -3.1 12 -1.5 18.2 Q 791 322.4 798.1 349.7 q 20.6 -2.2 41.2 -4.4 Z" transform="translate(-168.6,-127.6)" fill="#3f3d56"/><path d="M 793.8 226.2 c -1.2 -7.9 -2.5 -16 -5.3 -23.4 c -2.8 -7.5 -7.4 -14.5 -14 -18.7 c -10.4 -6.7 -23.9 -5.4 -35.5 -1.6 c -9 3 -17.8 7.5 -24.2 14.8 c -6.4 7.3 -9.9 17.7 -7.6 27.2 q 18.7 -4.4 37.3 -8.8 l -1.4 1 a 30 30 0 0 1 16 20.9 a 31.1 31.1 0 0 1 -6.6 25.8 q 12.7 -4.5 25.4 -9 c 5.2 -1.9 10.8 -4 13.9 -8.8 C 795.6 240.1 794.8 232.8 793.8 226.2 Z" transform="translate(-168.6,-127.6)" fill="#2f2e41"/></svg>