<?xml version="1.0" encoding="UTF-8" standalone="no"?>
<svg
   xmlns:dc="http://purl.org/dc/elements/1.1/"
   xmlns:cc="http://creativecommons.org/ns#"
   xmlns:rdf="http://www.w3.org/1999/02/22-rdf-syntax-ns#"
   xmlns:svg="http://www.w3.org/2000/svg"
   xmlns="http://www.w3.org/2000/svg"
   viewBox="0 0 1511.8134 755.90533"
   height="755.90533"
   width="1511.8134"
   xml:space="preserve"
   id="svg2"
   version="1.1"><metadata
     id="metadata8"><rdf:RDF><cc:Work
         rdf:about=""><dc:format>image/svg+xml</dc:format><dc:type
           rdf:resource="http://purl.org/dc/dcmitype/StillImage" /></cc:Work></rdf:RDF></metadata><defs
     id="defs6"><clipPath
       id="clipPath22"
       clipPathUnits="userSpaceOnUse"><path
         id="path20"
         d="M 0,566.929 H 1133.858 V 0 H 0 Z" /></clipPath></defs><g
     transform="matrix(1.3333333,0,0,-1.3333333,0,755.90533)"
     id="g10"><g
       transform="translate(327.2804,76.2054)"
       id="g12"><path
         id="path14"
         style="fill:#979696;fill-opacity:1;fill-rule:nonzero;stroke:none"
         d="M 0,0 H 4.609 L 2.348,7.902 H 2.273 Z M 5.181,-2 H -0.584 L -1.901,-6.572 H -4.46 L 1.106,11.517 H 3.541 L 9.057,-6.572 H 6.498 Z" /></g><g
       id="g16"><g
         clip-path="url(#clipPath22)"
         id="g18"><g
           transform="translate(349.3835,87.7229)"
           id="g24"><path
             id="path26"
             style="fill:#979696;fill-opacity:1;fill-rule:nonzero;stroke:none"
             d="m 0,0 v -12.536 c 0,-1.872 -0.536,-3.309 -1.609,-4.311 -1.073,-1.003 -2.475,-1.504 -4.206,-1.504 -1.706,0 -3.085,0.501 -4.137,1.504 -1.052,1.002 -1.578,2.439 -1.578,4.311 V 0 h 2.497 v -12.536 c 0,-1.292 0.29,-2.266 0.87,-2.92 0.58,-0.654 1.363,-0.981 2.348,-0.981 1.027,0 1.835,0.315 2.423,0.944 0.588,0.629 0.882,1.615 0.882,2.957 L -2.51,0 Z" /></g><g
           transform="translate(363.0378,85.8095)"
           id="g28"><path
             id="path30"
             style="fill:#979696;fill-opacity:1;fill-rule:nonzero;stroke:none"
             d="M 0,0 H -4.647 V -16.176 H -7.169 V 0 h -4.622 V 1.913 H 0 Z" /></g><g
           transform="translate(373.872,81.1882)"
           id="g32"><path
             id="path34"
             style="fill:#979696;fill-opacity:1;fill-rule:nonzero;stroke:none"
             d="M 0,0 C 0,1.573 -0.315,2.769 -0.944,3.584 -1.574,4.4 -2.464,4.808 -3.616,4.808 -4.751,4.808 -5.62,4.4 -6.224,3.584 -6.829,2.769 -7.131,1.573 -7.131,0 v -5.007 c 0,-1.591 0.304,-2.796 0.913,-3.616 0.608,-0.82 1.476,-1.23 2.602,-1.23 1.16,0 2.052,0.408 2.678,1.224 C -0.313,-7.813 0,-6.606 0,-5.007 Z m 2.51,-5.007 c 0,-2.146 -0.555,-3.817 -1.665,-5.014 -1.11,-1.196 -2.597,-1.795 -4.461,-1.795 -1.838,0 -3.3,0.599 -4.385,1.795 -1.085,1.197 -1.628,2.868 -1.628,5.014 v 4.969 c 0,2.138 0.545,3.81 1.634,5.02 1.089,1.209 2.549,1.814 4.379,1.814 1.856,0 3.341,-0.605 4.455,-1.814 C 1.953,3.772 2.51,2.1 2.51,-0.038 Z" /></g><g
           transform="translate(387.3401,79.349)"
           id="g36"><path
             id="path38"
             style="fill:#979696;fill-opacity:1;fill-rule:nonzero;stroke:none"
             d="M 0,0 H 2.982 C 4.001,0 4.753,0.276 5.237,0.828 5.722,1.38 5.964,2.162 5.964,3.174 5.964,4.211 5.728,5.017 5.256,5.59 4.784,6.162 4.067,6.448 3.106,6.448 H 0 Z M 0,-1.913 V -9.716 H -2.522 V 8.362 h 5.628 c 1.715,0 3.04,-0.444 3.976,-1.329 C 8.018,6.147 8.486,4.877 8.486,3.221 8.486,2.278 8.269,1.454 7.834,0.75 7.399,0.046 6.771,-0.504 5.951,-0.901 6.854,-1.208 7.507,-1.728 7.908,-2.462 8.31,-3.195 8.511,-4.1 8.511,-5.178 v -1.579 c 0,-0.555 0.056,-1.071 0.168,-1.548 0.112,-0.477 0.304,-0.852 0.577,-1.125 V -9.716 H 6.66 C 6.378,-9.442 6.198,-9.029 6.119,-8.478 6.04,-7.926 6.001,-7.343 6.001,-6.729 v 1.53 c 0,1.013 -0.23,1.813 -0.689,2.402 -0.46,0.589 -1.092,0.884 -1.895,0.884 z" /></g><g
           transform="translate(408.4865,78.0446)"
           id="g40"><path
             id="path42"
             style="fill:#979696;fill-opacity:1;fill-rule:nonzero;stroke:none"
             d="m 0,0 h -6.709 v -6.498 h 7.778 v -1.913 h -10.3 V 9.678 H 0.994 V 7.765 H -6.709 V 1.913 l 6.709,0 z" /></g><g
           transform="translate(422.6007,75.1246)"
           id="g44"><path
             id="path46"
             style="fill:#979696;fill-opacity:1;fill-rule:nonzero;stroke:none"
             d="m 0,0 0.037,-0.074 c -0.008,-1.806 -0.488,-3.204 -1.441,-4.193 -0.953,-0.991 -2.298,-1.486 -4.038,-1.486 -1.773,0 -3.189,0.597 -4.249,1.79 -1.06,1.192 -1.591,2.858 -1.591,4.995 v 5.019 c 0,2.137 0.524,3.806 1.572,5.007 1.048,1.201 2.446,1.801 4.194,1.801 1.772,0 3.134,-0.484 4.087,-1.453 C -0.476,10.437 0.012,9.02 0.037,7.157 L 0,7.082 h -2.386 c -0.024,1.326 -0.285,2.301 -0.782,2.926 -0.497,0.625 -1.28,0.938 -2.348,0.938 -1.036,0 -1.839,-0.419 -2.411,-1.257 C -8.498,8.851 -8.784,7.657 -8.784,6.105 V 1.039 c 0,-1.576 0.292,-2.783 0.876,-3.621 0.584,-0.838 1.406,-1.257 2.466,-1.257 1.044,0 1.808,0.305 2.292,0.913 0.485,0.609 0.735,1.584 0.752,2.926 z" /></g><g
           transform="translate(430.4157,78.9392)"
           id="g48"><path
             id="path50"
             style="fill:#979696;fill-opacity:1;fill-rule:nonzero;stroke:none"
             d="M 0,0 H 0.074 L 3.777,8.784 H 6.573 L 1.255,-2.796 v -6.51 h -2.51 v 6.672 L -6.511,8.784 h 2.821 z" /></g><g
           transform="translate(449.3753,75.1246)"
           id="g52"><path
             id="path54"
             style="fill:#979696;fill-opacity:1;fill-rule:nonzero;stroke:none"
             d="m 0,0 0.037,-0.074 c -0.008,-1.806 -0.488,-3.204 -1.441,-4.193 -0.953,-0.991 -2.298,-1.486 -4.038,-1.486 -1.773,0 -3.189,0.597 -4.249,1.79 -1.06,1.192 -1.591,2.858 -1.591,4.995 v 5.019 c 0,2.137 0.524,3.806 1.572,5.007 1.048,1.201 2.446,1.801 4.194,1.801 1.772,0 3.134,-0.484 4.087,-1.453 C -0.476,10.437 0.012,9.02 0.037,7.157 L 0,7.082 h -2.386 c -0.024,1.326 -0.285,2.301 -0.782,2.926 -0.497,0.625 -1.28,0.938 -2.348,0.938 -1.036,0 -1.839,-0.419 -2.411,-1.257 C -8.498,8.851 -8.784,7.657 -8.784,6.105 V 1.039 c 0,-1.576 0.292,-2.783 0.876,-3.621 0.584,-0.838 1.406,-1.257 2.466,-1.257 1.044,0 1.808,0.305 2.292,0.913 0.485,0.609 0.735,1.584 0.752,2.926 z" /></g><g
           transform="translate(454.6679,71.5466)"
           id="g56"><path
             id="path58"
             style="fill:#979696;fill-opacity:1;fill-rule:nonzero;stroke:none"
             d="M 0,0 H 7.057 V -1.913 H -2.522 V 16.176 H 0 Z" /></g><path
           id="path60"
           style="fill:#979696;fill-opacity:1;fill-rule:nonzero;stroke:none"
           d="m 466.645,69.633 h -2.51 v 18.09 h 2.51 z" /><g
           transform="translate(482.3003,69.6332)"
           id="g62"><path
             id="path64"
             style="fill:#979696;fill-opacity:1;fill-rule:nonzero;stroke:none"
             d="M 0,0 H -2.51 L -9.368,13.455 -9.443,13.431 V 0 h -2.522 v 18.09 h 2.522 L -2.584,4.672 -2.51,4.696 V 18.09 H 0 Z" /></g><g
           transform="translate(497.2591,72.2054)"
           id="g66"><path
             id="path68"
             style="fill:#979696;fill-opacity:1;fill-rule:nonzero;stroke:none"
             d="m 0,0 c -0.414,-0.729 -1.087,-1.384 -2.019,-1.963 -0.932,-0.581 -2.123,-0.87 -3.572,-0.87 -1.897,0 -3.425,0.575 -4.585,1.727 -1.159,1.151 -1.739,2.791 -1.739,4.92 v 5.367 c 0,2.096 0.551,3.719 1.652,4.87 1.102,1.152 2.564,1.728 4.386,1.728 1.847,0 3.26,-0.466 4.237,-1.398 0.977,-0.932 1.499,-2.238 1.565,-3.92 L -0.1,10.387 h -2.385 c -0.041,1.134 -0.337,1.998 -0.888,2.59 -0.551,0.592 -1.373,0.888 -2.467,0.888 -1.101,0 -1.971,-0.396 -2.609,-1.188 -0.637,-0.793 -0.956,-1.944 -0.956,-3.453 V 3.822 c 0,-1.543 0.341,-2.719 1.025,-3.528 0.683,-0.81 1.613,-1.214 2.789,-1.214 0.861,0 1.53,0.147 2.007,0.441 0.476,0.294 0.83,0.669 1.062,1.125 v 4.112 h -3.094 v 1.827 l 5.616,0 z" /></g><g
           transform="translate(509.2986,76.2054)"
           id="g70"><path
             id="path72"
             style="fill:#979696;fill-opacity:1;fill-rule:nonzero;stroke:none"
             d="M 0,0 H 4.609 L 2.348,7.902 H 2.273 Z M 5.181,-2 H -0.584 L -1.901,-6.572 H -4.46 L 1.106,11.517 H 3.541 L 9.058,-6.572 h -2.56 z" /></g><g
           transform="translate(532.3458,69.6332)"
           id="g74"><path
             id="path76"
             style="fill:#979696;fill-opacity:1;fill-rule:nonzero;stroke:none"
             d="M 0,0 H -2.51 L -9.368,13.455 -9.443,13.431 V 0 h -2.522 v 18.09 h 2.522 L -2.584,4.672 -2.51,4.696 V 18.09 H 0 Z" /></g><g
           transform="translate(538.3964,85.8095)"
           id="g78"><path
             id="path80"
             style="fill:#979696;fill-opacity:1;fill-rule:nonzero;stroke:none"
             d="m 0,0 v -14.263 h 2.361 c 1.267,0 2.267,0.544 3,1.631 0.733,1.087 1.1,2.493 1.1,4.219 v 2.601 c 0,1.709 -0.367,3.105 -1.1,4.188 C 4.628,-0.541 3.628,0 2.361,0 Z M -2.522,-16.176 V 1.913 h 4.97 c 1.921,0 3.489,-0.724 4.703,-2.173 1.213,-1.45 1.82,-3.314 1.82,-5.591 v -2.573 c 0,-2.285 -0.607,-4.149 -1.82,-5.591 -1.214,-1.441 -2.782,-2.161 -4.703,-2.161 z" /></g><g
           transform="translate(558.9342,87.7229)"
           id="g82"><path
             id="path84"
             style="fill:#979696;fill-opacity:1;fill-rule:nonzero;stroke:none"
             d="M 0,0 4.224,-14.76 H 4.299 L 8.535,0 h 3.256 V -18.09 H 9.293 v 6.946 L 9.517,-4.187 9.442,-4.175 5.094,-18.09 H 3.429 l -4.336,13.903 -0.075,-0.012 0.236,-6.945 V -18.09 H -3.243 V 0 Z" /></g><g
           transform="translate(583.1867,81.1882)"
           id="g86"><path
             id="path88"
             style="fill:#979696;fill-opacity:1;fill-rule:nonzero;stroke:none"
             d="M 0,0 C 0,1.573 -0.315,2.769 -0.944,3.584 -1.574,4.4 -2.464,4.808 -3.615,4.808 -4.751,4.808 -5.62,4.4 -6.224,3.584 -6.829,2.769 -7.131,1.573 -7.131,0 v -5.007 c 0,-1.591 0.304,-2.796 0.913,-3.616 0.608,-0.82 1.476,-1.23 2.603,-1.23 1.159,0 2.051,0.408 2.677,1.224 C -0.313,-7.813 0,-6.606 0,-5.007 Z m 2.51,-5.007 c 0,-2.146 -0.555,-3.817 -1.665,-5.014 -1.11,-1.196 -2.597,-1.795 -4.46,-1.795 -1.839,0 -3.301,0.599 -4.386,1.795 -1.085,1.197 -1.628,2.868 -1.628,5.014 v 4.969 c 0,2.138 0.545,3.81 1.634,5.02 1.089,1.209 2.549,1.814 4.38,1.814 1.855,0 3.34,-0.605 4.454,-1.814 C 1.953,3.772 2.51,2.1 2.51,-0.038 Z" /></g><g
           transform="translate(591.1133,85.8095)"
           id="g90"><path
             id="path92"
             style="fill:#979696;fill-opacity:1;fill-rule:nonzero;stroke:none"
             d="m 0,0 v -14.263 h 2.361 c 1.267,0 2.267,0.544 3,1.631 0.733,1.087 1.1,2.493 1.1,4.219 v 2.601 c 0,1.709 -0.367,3.105 -1.1,4.188 C 4.628,-0.541 3.628,0 2.361,0 Z M -2.522,-16.176 V 1.913 h 4.97 c 1.921,0 3.489,-0.724 4.703,-2.173 1.213,-1.45 1.82,-3.314 1.82,-5.591 v -2.573 c 0,-2.285 -0.607,-4.149 -1.82,-5.591 -1.214,-1.441 -2.782,-2.161 -4.703,-2.161 z" /></g><path
           id="path94"
           style="fill:#979696;fill-opacity:1;fill-rule:nonzero;stroke:none"
           d="m 605.613,69.633 h -2.51 v 18.09 h 2.51 z" /><g
           transform="translate(618.5466,77.6845)"
           id="g96"><path
             id="path98"
             style="fill:#979696;fill-opacity:1;fill-rule:nonzero;stroke:none"
             d="M 0,0 H -6.722 V -8.051 H -9.244 V 10.038 H 1.081 V 8.125 H -6.722 V 1.913 l 6.722,0 z" /></g><path
           id="path100"
           style="fill:#979696;fill-opacity:1;fill-rule:nonzero;stroke:none"
           d="m 624.66,69.633 h -2.51 v 18.09 h 2.51 z" /><g
           transform="translate(639.0468,75.1246)"
           id="g102"><path
             id="path104"
             style="fill:#979696;fill-opacity:1;fill-rule:nonzero;stroke:none"
             d="m 0,0 0.037,-0.074 c -0.008,-1.806 -0.488,-3.204 -1.441,-4.193 -0.953,-0.991 -2.298,-1.486 -4.038,-1.486 -1.773,0 -3.189,0.597 -4.249,1.79 -1.06,1.192 -1.59,2.858 -1.59,4.995 v 5.019 c 0,2.137 0.524,3.806 1.571,5.007 1.048,1.201 2.446,1.801 4.194,1.801 1.772,0 3.134,-0.484 4.087,-1.453 C -0.476,10.437 0.012,9.02 0.037,7.157 L 0,7.082 h -2.386 c -0.024,1.326 -0.285,2.301 -0.782,2.926 -0.497,0.625 -1.28,0.938 -2.348,0.938 -1.036,0 -1.839,-0.419 -2.411,-1.257 C -8.498,8.851 -8.784,7.657 -8.784,6.105 V 1.039 c 0,-1.576 0.292,-2.783 0.876,-3.621 0.584,-0.838 1.406,-1.257 2.466,-1.257 1.044,0 1.808,0.305 2.292,0.913 0.485,0.609 0.735,1.584 0.752,2.926 z" /></g><g
           transform="translate(644.8618,76.2054)"
           id="g106"><path
             id="path108"
             style="fill:#979696;fill-opacity:1;fill-rule:nonzero;stroke:none"
             d="M 0,0 H 4.609 L 2.348,7.902 H 2.273 Z M 5.181,-2 H -0.584 L -1.901,-6.572 H -4.46 L 1.106,11.517 H 3.541 L 9.057,-6.572 H 6.498 Z" /></g><g
           transform="translate(664.8152,85.8095)"
           id="g110"><path
             id="path112"
             style="fill:#979696;fill-opacity:1;fill-rule:nonzero;stroke:none"
             d="M 0,0 H -4.647 V -16.176 H -7.169 V 0 h -4.622 V 1.913 H 0 Z" /></g><path
           id="path114"
           style="fill:#979696;fill-opacity:1;fill-rule:nonzero;stroke:none"
           d="m 669.673,69.633 h -2.51 v 18.09 h 2.51 z" /><g
           transform="translate(682.371,81.1882)"
           id="g116"><path
             id="path118"
             style="fill:#979696;fill-opacity:1;fill-rule:nonzero;stroke:none"
             d="M 0,0 C 0,1.573 -0.315,2.769 -0.944,3.584 -1.574,4.4 -2.464,4.808 -3.615,4.808 -4.75,4.808 -5.62,4.4 -6.224,3.584 -6.829,2.769 -7.131,1.573 -7.131,0 v -5.007 c 0,-1.591 0.304,-2.796 0.913,-3.616 0.608,-0.82 1.476,-1.23 2.603,-1.23 1.159,0 2.051,0.408 2.677,1.224 C -0.313,-7.813 0,-6.606 0,-5.007 Z m 2.51,-5.007 c 0,-2.146 -0.555,-3.817 -1.665,-5.014 -1.11,-1.196 -2.597,-1.795 -4.46,-1.795 -1.839,0 -3.301,0.599 -4.386,1.795 -1.085,1.197 -1.628,2.868 -1.628,5.014 v 4.969 c 0,2.138 0.545,3.81 1.634,5.02 1.089,1.209 2.549,1.814 4.38,1.814 1.855,0 3.34,-0.605 4.454,-1.814 C 1.953,3.772 2.51,2.1 2.51,-0.038 Z" /></g><g
           transform="translate(699.7404,69.6332)"
           id="g120"><path
             id="path122"
             style="fill:#979696;fill-opacity:1;fill-rule:nonzero;stroke:none"
             d="M 0,0 H -2.51 L -9.368,13.455 -9.443,13.431 V 0 h -2.522 v 18.09 h 2.522 L -2.584,4.672 -2.51,4.696 V 18.09 H 0 Z" /></g><path
           id="path124"
           style="fill:#979696;fill-opacity:1;fill-rule:nonzero;stroke:none"
           d="m 711.494,69.633 h -2.51 v 18.09 h 2.51 z" /><g
           transform="translate(727.1487,69.6332)"
           id="g126"><path
             id="path128"
             style="fill:#979696;fill-opacity:1;fill-rule:nonzero;stroke:none"
             d="M 0,0 H -2.51 L -9.368,13.455 -9.443,13.431 V 0 h -2.522 v 18.09 h 2.522 L -2.584,4.672 -2.51,4.696 V 18.09 H 0 Z" /></g><g
           transform="translate(733.1993,85.8095)"
           id="g130"><path
             id="path132"
             style="fill:#979696;fill-opacity:1;fill-rule:nonzero;stroke:none"
             d="m 0,0 v -14.263 h 2.361 c 1.267,0 2.267,0.544 3,1.631 0.733,1.087 1.1,2.493 1.1,4.219 v 2.601 c 0,1.709 -0.367,3.105 -1.1,4.188 C 4.628,-0.541 3.628,0 2.361,0 Z M -2.522,-16.176 V 1.913 h 4.97 c 1.921,0 3.489,-0.724 4.703,-2.173 1.213,-1.45 1.82,-3.314 1.82,-5.591 v -2.573 c 0,-2.285 -0.607,-4.149 -1.82,-5.591 -1.214,-1.441 -2.782,-2.161 -4.703,-2.161 z" /></g><g
           transform="translate(756.2469,87.7229)"
           id="g134"><path
             id="path136"
             style="fill:#979696;fill-opacity:1;fill-rule:nonzero;stroke:none"
             d="m 0,0 v -12.536 c 0,-1.872 -0.536,-3.309 -1.609,-4.311 -1.073,-1.003 -2.475,-1.504 -4.206,-1.504 -1.706,0 -3.085,0.501 -4.137,1.504 -1.052,1.002 -1.578,2.439 -1.578,4.311 V 0 h 2.497 v -12.536 c 0,-1.292 0.29,-2.266 0.87,-2.92 0.58,-0.654 1.363,-0.981 2.348,-0.981 1.027,0 1.835,0.315 2.423,0.944 0.588,0.629 0.882,1.615 0.882,2.957 L -2.51,0 Z" /></g><g
           transform="translate(767.702,74.1931)"
           id="g138"><path
             id="path140"
             style="fill:#979696;fill-opacity:1;fill-rule:nonzero;stroke:none"
             d="m 0,0 c 0,0.853 -0.24,1.553 -0.72,2.1 -0.481,0.546 -1.322,1.027 -2.523,1.44 -1.723,0.522 -3.044,1.202 -3.963,2.042 -0.92,0.84 -1.379,1.95 -1.379,3.332 0,1.423 0.511,2.591 1.534,3.506 1.023,0.914 2.338,1.371 3.945,1.371 1.673,0 3.021,-0.528 4.044,-1.584 1.023,-1.056 1.518,-2.33 1.485,-3.821 L 2.398,8.312 h -2.423 c 0,1.055 -0.271,1.913 -0.814,2.574 -0.542,0.661 -1.306,0.992 -2.292,0.992 -0.936,0 -1.659,-0.276 -2.168,-0.827 -0.51,-0.55 -0.764,-1.253 -0.764,-2.106 0,-0.77 0.273,-1.418 0.82,-1.944 C -4.696,6.475 -3.794,5.997 -2.535,5.566 -0.886,5.052 0.369,4.351 1.23,3.463 2.091,2.576 2.522,1.428 2.522,0.018 c 0,-1.484 -0.509,-2.662 -1.528,-3.533 -1.019,-0.87 -2.356,-1.306 -4.013,-1.306 -1.615,0 -3.025,0.479 -4.231,1.435 -1.205,0.957 -1.787,2.305 -1.745,4.044 l 0.024,0.075 h 2.423 c 0,-1.238 0.325,-2.155 0.976,-2.749 0.65,-0.594 1.501,-0.892 2.553,-0.892 0.944,0 1.683,0.264 2.218,0.789 C -0.267,-1.593 0,-0.886 0,0" /></g><g
           transform="translate(783.4068,85.8095)"
           id="g142"><path
             id="path144"
             style="fill:#979696;fill-opacity:1;fill-rule:nonzero;stroke:none"
             d="M 0,0 H -4.647 V -16.176 H -7.169 V 0 h -4.622 V 1.913 H 0 Z" /></g><g
           transform="translate(788.1031,79.349)"
           id="g146"><path
             id="path148"
             style="fill:#979696;fill-opacity:1;fill-rule:nonzero;stroke:none"
             d="M 0,0 H 2.982 C 4.001,0 4.753,0.276 5.237,0.828 5.722,1.38 5.964,2.162 5.964,3.174 5.964,4.211 5.728,5.017 5.256,5.59 4.784,6.162 4.067,6.448 3.106,6.448 H 0 Z M 0,-1.913 V -9.716 H -2.522 V 8.362 h 5.628 c 1.715,0 3.04,-0.444 3.976,-1.329 C 8.018,6.147 8.486,4.877 8.486,3.221 8.486,2.278 8.269,1.454 7.834,0.75 7.399,0.046 6.771,-0.504 5.951,-0.901 6.854,-1.208 7.506,-1.728 7.908,-2.462 8.31,-3.195 8.511,-4.1 8.511,-5.178 v -1.579 c 0,-0.555 0.056,-1.071 0.168,-1.548 0.112,-0.477 0.304,-0.852 0.577,-1.125 V -9.716 H 6.66 C 6.378,-9.442 6.198,-9.029 6.119,-8.478 6.04,-7.926 6.001,-7.343 6.001,-6.729 v 1.53 c 0,1.013 -0.23,1.813 -0.689,2.402 -0.46,0.589 -1.092,0.884 -1.895,0.884 z" /></g><g
           transform="translate(804.4662,78.9392)"
           id="g150"><path
             id="path152"
             style="fill:#979696;fill-opacity:1;fill-rule:nonzero;stroke:none"
             d="M 0,0 H 0.074 L 3.777,8.784 H 6.573 L 1.255,-2.796 v -6.51 h -2.51 v 6.672 L -6.511,8.784 h 2.821 z" /></g><g
           transform="translate(393.8054,163.406)"
           id="g154"><path
             id="path156"
             style="fill:#d24549;fill-opacity:1;fill-rule:nonzero;stroke:none"
             d="M 0,0 C -2.521,21.69 -5.049,48.5 -7.585,80.433 -12.658,43.763 -15.845,16.952 -17.142,0 Z M 26.392,123.134 54.869,-68.369 H 3.977 l -2.672,34.421 h -17.813 l -2.994,-34.421 h -51.483 l 25.401,191.503 z" /></g><g
           transform="translate(506.9296,253.775)"
           id="g158"><path
             id="path160"
             style="fill:#d24549;fill-opacity:1;fill-rule:nonzero;stroke:none"
             d="m 0,0 v -42.582 c 5.598,0 9.522,0.768 11.769,2.306 2.247,1.538 3.371,6.524 3.371,14.963 v 10.528 c 0,6.071 -1.085,10.054 -3.253,11.946 C 9.718,-0.947 5.755,0 0,0 m -49.798,32.765 h 35.249 c 23.498,0 39.407,-0.907 47.728,-2.721 8.318,-1.815 15.099,-6.446 20.345,-13.898 5.243,-7.452 7.866,-19.34 7.866,-35.663 0,-14.903 -1.854,-24.919 -5.56,-30.044 -3.707,-5.127 -11,-8.202 -21.882,-9.226 9.856,-2.445 16.48,-5.719 19.871,-9.818 3.39,-4.101 5.5,-7.866 6.328,-11.296 0.828,-3.43 1.243,-12.875 1.243,-28.329 v -50.508 H 15.14 v 63.637 c 0,10.25 -0.809,16.599 -2.424,19.044 C 11.098,-73.614 6.861,-72.39 0,-72.39 v -86.348 h -49.798 z" /></g><g
           transform="translate(741.2507,286.5396)"
           id="g162"><path
             id="path164"
             style="fill:#d24549;fill-opacity:1;fill-rule:nonzero;stroke:none"
             d="m 0,0 v -191.502 h -43.529 l -0.059,129.284 -17.328,-129.284 h -30.873 l -18.275,126.328 -0.059,-126.328 h -43.528 V 0 h 64.435 c 1.911,-11.514 3.881,-25.084 5.911,-40.712 L -76.234,-89.423 -64.79,0 Z" /></g><path
           id="path166"
           style="fill:#d24549;fill-opacity:1;fill-rule:nonzero;stroke:none"
           d="m 811.039,95.037 h -49.798 v 191.502 h 49.798 z" /><path
           id="path168"
           style="fill:#858586;fill-opacity:1;fill-rule:nonzero;stroke:none"
           d="m 462.459,312.3 h 218.78 V 531.08 H 462.459 Z M 684.14,309.4 H 459.559 V 533.981 H 684.14 Z" /><g
           transform="translate(509.9007,426.2457)"
           id="g170"><path
             id="path172"
             style="fill:#d24549;fill-opacity:1;fill-rule:nonzero;stroke:none"
             d="m 0,0 c -0.012,0.358 -0.042,0.688 -0.034,1.077 0.301,13.553 0.021,27.118 0.09,40.676 7.39,-9.579 14.418,-19.452 22.063,-28.822 2.28,-2.794 5.667,-6.407 8.708,-6.565 13.693,-0.708 29.16,-0.308 43.525,-0.308 -3.493,4.949 -2.63,3.79 -3.254,4.628 -18.721,25.118 -37.462,50.223 -56.324,75.235 -1.543,2.045 -3.938,4.824 -6.002,4.88 -15.253,0.415 -30.522,0.224 -45.517,0.224 l 0,-91.025 z" /></g><g
           transform="translate(631.395,388.9786)"
           id="g174"><path
             id="path176"
             style="fill:#858586;fill-opacity:1;fill-rule:nonzero;stroke:none"
             d="m 0,0 c 26.026,14.06 39.571,40.273 35.998,69.643 -3.352,27.554 -23.715,52.693 -52.2,56.641 -24.759,3.432 -50.37,0.714 -76.618,0.714 6.487,-8.788 13.117,-16.796 18.623,-25.513 5.096,-8.07 11.365,-11.528 20.991,-10.614 8.042,0.763 16.291,0.591 24.342,-0.225 C -13,89.038 -0.997,75.307 -1.24,59.967 -1.497,43.829 -14.127,30.669 -30.98,30.389 c -27.467,-0.458 -54.947,-0.032 -82.419,-0.225 -4.338,-0.031 -6.696,1.169 -7.634,4.066 h -47.903 v -45.55 h 48.324 c 1.18,2.4 3.601,3.505 8.129,3.383 16.628,-0.447 33.291,0.24 49.906,-0.42 3.844,-0.153 8.655,-2.973 11.127,-6.075 11.808,-14.817 22.862,-30.232 34.441,-45.236 2.209,-2.863 5.474,-6.741 8.421,-6.893 14.026,-0.725 28.11,-0.324 44.241,-0.324 C 19.515,-45.251 4.832,-25.568 -10.22,-5.39 -6.089,-3.213 -3.029,-1.636 0,0" /></g><g
           transform="translate(509.9828,374.6217)"
           id="g178"><path
             id="path180"
             style="fill:#d24549;fill-opacity:1;fill-rule:nonzero;stroke:none"
             d="m 0,0 h -36.827 v -51.624 h 36.779 c 0,16.8 0.228,32.629 -0.107,48.447 C -0.18,-1.991 -0.115,-0.96 0,0" /></g></g></g><text
       id="text184"
       style="font-variant:normal;font-weight:500;font-stretch:normal;font-size:28.10930061px;font-family:'GE Dinar One';-inkscape-font-specification:GEDinarOne-Medium;writing-mode:lr-tb;fill:#979696;fill-opacity:1;fill-rule:nonzero;stroke:none"
       transform="matrix(1,0,0,-1,322.8188,44.6133)"><tspan
         id="tspan182"
         y="0"
         x="0 22.740423 30.442371 34.967968 45.902489 50.428085 67.068787 80.589363 99.282051 103.80765 111.59392 116.6817 121.23541 141.83952 146.36513 157.29964 161.82524 177.34157 185.04352 193.19522 206.54713 211.10085 224.62141 229.14702 233.67261 241.82431 255.17622 271.17041 279.32211 283.87582 297.7056 311.28238 318.98434 323.50995 339.27924 354.93613 359.48984 375.09048 379.61609 395.0481 405.9826 411.0704 415.62411 432.18048 448.8212 462.34177">تﺎـﺒـﻛﺮﻤـﻟا ﻞـﻴـﻫﺄﺗو ﺮــﻳوﺪﺗ ةدﺎـﻋﻻ ﻲـﻣرا ﺔﻛﺮﺷ</tspan></text>
</g></svg>